<?xml version="1.0" encoding="iso-8859-1"?>
<!-- Generator: Adobe Illustrator 19.0.0, SVG Export Plug-In . SVG Version: 6.00 Build 0)  -->
<svg version="1.1" id="Capa_1" xmlns="http://www.w3.org/2000/svg" xmlns:xlink="http://www.w3.org/1999/xlink" x="0px" y="0px"
	 viewBox="0 0 512 512" style="enable-background:new 0 0 512 512;" xml:space="preserve">
<g>
	<path style="fill:#266E96;" d="M168.804,295.68c-1.947-3.735-6.553-5.182-10.289-3.236l-96.39,50.268
		c-3.734,1.948-5.183,6.554-3.235,10.289c1.36,2.609,4.017,4.102,6.769,4.102c1.188,0,2.394-0.279,3.52-0.866l96.39-50.268
		C169.303,304.021,170.752,299.415,168.804,295.68z"/>
	<polygon style="fill:#266E96;" points="0,352.096 48.807,358.255 25.925,401.808 78.022,374.64 100.904,331.087 52.096,324.927 	
		"/>
</g>
<polygon style="fill:#1E608B;" points="48.807,358.255 25.925,401.808 78.022,374.64 100.904,331.087 "/>
<path style="fill:#FF6991;" d="M338.435,106.958c-32.329,0-61.109,15.188-79.599,38.816c-18.49-23.628-47.27-38.816-79.599-38.816
	c-55.791,0-101.019,45.228-101.019,101.019c0,126.921,180.618,197.598,180.618,197.598s180.618-70.677,180.618-197.598
	C439.454,152.186,394.226,106.958,338.435,106.958z"/>
<path style="fill:#FF507E;" d="M338.435,106.958c-9.26,0-18.227,1.251-26.746,3.585c42.812,11.724,74.277,50.901,74.277,97.434
	c0,82.397-74.809,156.018-127.297,197.532c0.107,0.042,0.166,0.066,0.166,0.066s180.618-70.676,180.618-197.598
	C439.454,152.186,394.226,106.958,338.435,106.958z"/>
<path style="fill:#266E96;" d="M511.193,116.799c-1.139-2.277-3.34-3.836-5.866-4.156l-48.807-6.159
	c-4.179-0.521-7.995,2.434-8.521,6.612c-0.527,4.18,2.433,7.995,6.612,8.522l24.618,3.107L344.34,195.069
	c-3.734,1.948-5.183,6.554-3.235,10.289c1.36,2.609,4.017,4.102,6.769,4.102c1.188,0,2.394-0.279,3.52-0.866l134.889-70.346
	l-11.544,21.966c-1.959,3.729-0.525,8.34,3.204,10.299c1.132,0.596,2.345,0.878,3.541,0.878c2.743-0.001,5.393-1.485,6.758-4.08
	l22.885-43.547C512.268,121.59,512.291,118.994,511.193,116.799z"/>
<g>
</g>
<g>
</g>
<g>
</g>
<g>
</g>
<g>
</g>
<g>
</g>
<g>
</g>
<g>
</g>
<g>
</g>
<g>
</g>
<g>
</g>
<g>
</g>
<g>
</g>
<g>
</g>
<g>
</g>
</svg>
